<?xml version="1.0" encoding="utf-8"?>
<!-- Generator: Adobe Illustrator 16.0.0, SVG Export Plug-In . SVG Version: 6.00 Build 0)  -->
<!DOCTYPE svg PUBLIC "-//W3C//DTD SVG 1.1//EN" "http://www.w3.org/Graphics/SVG/1.1/DTD/svg11.dtd">
<svg version="1.1" id="Capa_1" xmlns="http://www.w3.org/2000/svg" xmlns:xlink="http://www.w3.org/1999/xlink" x="0px" y="0px"
	 width="35px" height="35px" viewBox="0 0 35 35" enable-background="new 0 0 35 35" xml:space="preserve">
<g>
	<g>
		<path fill="#010202" d="M31.436,4.622H3.565c-1.637,0-2.972,1.333-2.972,2.972v19.812c0,1.633,1.33,2.973,2.972,2.973h27.871
			c1.632,0,2.972-1.33,2.972-2.973V7.594C34.407,5.961,33.078,4.622,31.436,4.622z M31.024,6.603L17.563,20.064L3.985,6.603H31.024z
			 M2.574,26.996V7.995l9.542,9.46L2.574,26.996z M3.975,28.397l9.548-9.548l3.345,3.316c0.387,0.384,1.011,0.384,1.397-0.003
			l3.263-3.262l9.496,9.496H3.975z M32.426,26.996L22.93,17.5l9.496-9.496V26.996z"/>
	</g>
</g>
</svg>
