<?xml version="1.0" encoding="utf-8"?>
<!-- Generator: Adobe Illustrator 16.0.0, SVG Export Plug-In . SVG Version: 6.00 Build 0)  -->
<!DOCTYPE svg PUBLIC "-//W3C//DTD SVG 1.1//EN" "http://www.w3.org/Graphics/SVG/1.1/DTD/svg11.dtd">
<svg version="1.1" id="Capa_1" xmlns="http://www.w3.org/2000/svg" xmlns:xlink="http://www.w3.org/1999/xlink" x="0px" y="0px"
	 width="459.5px" height="343.5px" viewBox="0 0 459.5 343.5" enable-background="new 0 0 459.5 343.5" xml:space="preserve">
<g>
	<g>
		<g>
			<path fill="#010202" d="M341.979,222.587c3.89,3.89,3.889,10.253-0.001,14.141l-0.271,0.27
				c-3.89,3.888-10.254,3.888-14.144-0.002l-90.742-90.743c-3.89-3.889-10.253-3.889-14.143,0l-90.745,90.744
				c-3.889,3.89-10.254,3.89-14.143,0l-0.266-0.266c-3.889-3.89-3.89-10.253,0-14.143L222.68,117.427
				c3.889-3.889,10.252-3.889,14.142,0L341.979,222.587z"/>
			<path fill="none" stroke="#010202" stroke-linecap="round" stroke-linejoin="round" stroke-miterlimit="10" d="M341.979,222.587
				c3.89,3.89,3.889,10.253-0.001,14.141l-0.271,0.27c-3.89,3.888-10.254,3.888-14.144-0.002l-90.742-90.743
				c-3.89-3.889-10.253-3.889-14.143,0l-90.745,90.744c-3.889,3.89-10.254,3.89-14.143,0l-0.266-0.266
				c-3.889-3.89-3.89-10.253,0-14.143L222.68,117.427c3.889-3.889,10.252-3.889,14.142,0L341.979,222.587z"/>
		</g>
		<g>
			<path fill="#010202" d="M341.706,244.195c-3.89,3.89-10.253,3.89-14.143,0l-90.742-90.739c-3.89-3.889-10.253-3.889-14.143,0
				l-90.745,90.739c-3.889,3.89-10.253,3.889-14.143,0l-7.471-7.473c-3.889-3.889-3.889-10.253,0.001-14.143l112.357-112.357
				c3.89-3.889,10.253-3.889,14.143,0L349.179,222.58c3.89,3.89,3.89,10.253,0,14.143L341.706,244.195z M222.679,139.045
				c3.89-3.889,10.253-3.889,14.143,0l90.742,90.742c3.89,3.89,8.692,5.45,10.675,3.468s0.422-6.785-3.468-10.675l-97.949-97.946
				c-3.89-3.889-10.253-3.889-14.143,0l-97.95,97.946c-3.889,3.89-5.45,8.692-3.469,10.675s6.785,0.422,10.674-3.468
				L222.679,139.045z"/>
			<path fill="none" stroke="#010202" stroke-linecap="round" stroke-linejoin="round" stroke-miterlimit="10" d="M341.706,244.195
				c-3.89,3.89-10.253,3.89-14.143,0l-90.742-90.739c-3.89-3.889-10.253-3.889-14.143,0l-90.745,90.739
				c-3.889,3.89-10.253,3.889-14.143,0l-7.471-7.473c-3.889-3.889-3.889-10.253,0.001-14.143l112.357-112.357
				c3.89-3.889,10.253-3.889,14.143,0L349.179,222.58c3.89,3.89,3.89,10.253,0,14.143L341.706,244.195z M222.679,139.045
				c3.89-3.889,10.253-3.889,14.143,0l90.742,90.742c3.89,3.89,8.692,5.45,10.675,3.468s0.422-6.785-3.468-10.675l-97.949-97.946
				c-3.89-3.889-10.253-3.889-14.143,0l-97.95,97.946c-3.889,3.89-5.45,8.692-3.469,10.675s6.785,0.422,10.674-3.468
				L222.679,139.045z"/>
		</g>
	</g>
</g>
</svg>
