<?xml version="1.0" encoding="utf-8"?>
<!-- Generator: Adobe Illustrator 16.0.0, SVG Export Plug-In . SVG Version: 6.00 Build 0)  -->
<!DOCTYPE svg PUBLIC "-//W3C//DTD SVG 1.1//EN" "http://www.w3.org/Graphics/SVG/1.1/DTD/svg11.dtd">
<svg version="1.1" id="Capa_1" xmlns="http://www.w3.org/2000/svg" xmlns:xlink="http://www.w3.org/1999/xlink" x="0px" y="0px"
	 width="35px" height="35px" viewBox="0 0 35 35" enable-background="new 0 0 35 35" xml:space="preserve">
<g transform="translate(1)">
	<g>
		<g>
			<path fill="#010202" stroke="#000000" stroke-miterlimit="10" d="M5.32,1.968c-1.115,0-2.128,0.405-2.889,1.166
				C1.621,3.944,1.215,4.958,1.215,6.022c0,1.115,0.456,2.128,1.216,2.888c0.76,0.76,1.824,1.216,2.837,1.166c0,0,0.051,0,0.102,0
				c1.014,0,1.976-0.405,2.736-1.166c0.76-0.76,1.216-1.773,1.216-2.888c0.051-1.064-0.405-2.078-1.166-2.838
				C7.397,2.373,6.384,1.968,5.32,1.968z M7.397,8.201C6.84,8.758,6.08,9.113,5.269,9.062c-0.76,0-1.57-0.304-2.127-0.861
				C2.533,7.643,2.229,6.832,2.229,6.022c0-0.811,0.304-1.571,0.913-2.179C3.698,3.286,4.458,2.981,5.32,2.981
				c0.76,0,1.521,0.304,2.078,0.862C8.006,4.451,8.31,5.211,8.31,6.022C8.31,6.832,8.006,7.643,7.397,8.201z"/>
			<path fill="#010202" stroke="#000000" stroke-miterlimit="10" d="M7.296,12.257H3.191c-0.811,0-1.469,0.658-1.469,1.52v17.737
				c0,0.809,0.708,1.52,1.52,1.52h4.054c0.811,0,1.52-0.711,1.52-1.471V13.777C8.816,12.966,8.107,12.257,7.296,12.257z
				 M7.803,31.562c0,0.254-0.254,0.455-0.507,0.455H3.242c-0.254,0-0.506-0.252-0.506-0.504V13.777c0-0.253,0.203-0.506,0.456-0.506
				h4.104c0.253,0,0.507,0.253,0.507,0.506V31.562z"/>
			<path fill="#010202" stroke="#000000" stroke-miterlimit="10" d="M24.525,11.75h-1.064c-1.976,0-3.853,0.862-5.067,2.229v-0.709
				c0-0.507-0.508-1.013-1.014-1.013h-5.067c-0.456,0-1.013,0.405-1.013,0.962v18.901c0,0.557,0.557,0.912,1.013,0.912h5.573
				c0.457,0,1.015-0.355,1.015-0.912V21.176c0-1.672,1.215-2.99,2.786-2.99c0.811,0,1.571,0.305,2.129,0.861
				c0.506,0.457,0.71,1.164,0.71,2.078v10.893c0,0.508,0.505,1.016,1.013,1.016h5.067c0.506,0,1.014-0.508,1.014-1.016v-13.07
				C31.619,14.893,28.528,11.75,24.525,11.75z M30.605,31.969l-0.051,0.049h-4.966l-0.051-10.893c0-1.217-0.305-2.129-0.963-2.787
				c-0.76-0.76-1.773-1.166-2.838-1.166c-2.129,0.05-3.801,1.775-3.801,4.003v10.842h-5.573V13.271h5.016l0.051,0.05v3.192
				l1.368-1.368l0.05-0.05c1.015-1.419,2.787-2.331,4.662-2.331h1.064c3.395,0,6.03,2.736,6.03,6.184V31.969z"/>
		</g>
	</g>
</g>
</svg>
