<?xml version="1.0" encoding="utf-8"?>
<!-- Generator: Adobe Illustrator 16.0.0, SVG Export Plug-In . SVG Version: 6.00 Build 0)  -->
<!DOCTYPE svg PUBLIC "-//W3C//DTD SVG 1.1//EN" "http://www.w3.org/Graphics/SVG/1.1/DTD/svg11.dtd">
<svg version="1.1" id="Capa_1" xmlns="http://www.w3.org/2000/svg" xmlns:xlink="http://www.w3.org/1999/xlink" x="0px" y="0px"
	 width="459.5px" height="343.5px" viewBox="0 0 459.5 343.5" enable-background="new 0 0 459.5 343.5" xml:space="preserve">
<g>
	<g>
		<g>
			<path fill="#010202" d="M236.821,236.991c-3.89,3.889-10.253,3.889-14.143,0L117.525,131.831c-3.89-3.889-3.89-10.253,0-14.143
				l0.266-0.266c3.89-3.889,10.253-3.889,14.143,0l90.745,90.744c3.89,3.889,10.253,3.889,14.143,0l90.742-90.743
				c3.89-3.889,10.254-3.89,14.144-0.002l0.27,0.27c3.891,3.888,3.892,10.251,0.002,14.141L236.821,236.991z"/>
			<path fill="none" stroke="#010202" stroke-linecap="round" stroke-linejoin="round" stroke-miterlimit="10" d="M236.821,236.991
				c-3.89,3.889-10.253,3.889-14.143,0L117.525,131.831c-3.89-3.889-3.89-10.253,0-14.143l0.266-0.266
				c3.89-3.889,10.253-3.889,14.143,0l90.745,90.744c3.89,3.889,10.253,3.889,14.143,0l90.742-90.743
				c3.89-3.889,10.254-3.89,14.144-0.002l0.27,0.27c3.891,3.888,3.892,10.251,0.002,14.141L236.821,236.991z"/>
		</g>
		<g>
			<path fill="#010202" d="M349.179,117.696c3.89,3.889,3.89,10.253,0,14.142L236.821,244.195c-3.89,3.889-10.253,3.889-14.143,0
				L110.321,131.838c-3.89-3.889-3.89-10.253-0.001-14.143l7.472-7.472c3.889-3.89,10.252-3.89,14.142-0.001l90.745,90.739
				c3.89,3.889,10.253,3.889,14.143,0l90.742-90.739c3.89-3.889,10.253-3.889,14.143,0L349.179,117.696z M131.934,124.631
				c-3.89-3.889-8.692-5.449-10.674-3.467s-0.421,6.786,3.469,10.674l97.95,97.947c3.89,3.889,10.253,3.889,14.143,0l97.949-97.947
				c3.89-3.889,5.45-8.692,3.468-10.674s-6.785-0.421-10.675,3.467l-90.742,90.742c-3.89,3.889-10.253,3.889-14.143,0
				L131.934,124.631z"/>
			<path fill="none" stroke="#010202" stroke-linecap="round" stroke-linejoin="round" stroke-miterlimit="10" d="M349.179,117.696
				c3.89,3.889,3.89,10.253,0,14.142L236.821,244.195c-3.89,3.889-10.253,3.889-14.143,0L110.321,131.838
				c-3.89-3.889-3.89-10.253-0.001-14.143l7.472-7.472c3.889-3.89,10.252-3.89,14.142-0.001l90.745,90.739
				c3.89,3.889,10.253,3.889,14.143,0l90.742-90.739c3.89-3.889,10.253-3.889,14.143,0L349.179,117.696z M131.934,124.631
				c-3.89-3.889-8.692-5.449-10.674-3.467s-0.421,6.786,3.469,10.674l97.95,97.947c3.89,3.889,10.253,3.889,14.143,0l97.949-97.947
				c3.89-3.889,5.45-8.692,3.468-10.674s-6.785-0.421-10.675,3.467l-90.742,90.742c-3.89,3.889-10.253,3.889-14.143,0
				L131.934,124.631z"/>
		</g>
	</g>
</g>
</svg>
