<?xml version="1.0" encoding="utf-8"?>
<!-- Generator: Adobe Illustrator 16.0.0, SVG Export Plug-In . SVG Version: 6.00 Build 0)  -->
<!DOCTYPE svg PUBLIC "-//W3C//DTD SVG 1.1//EN" "http://www.w3.org/Graphics/SVG/1.1/DTD/svg11.dtd">
<svg version="1.1" id="Capa_1" xmlns="http://www.w3.org/2000/svg" xmlns:xlink="http://www.w3.org/1999/xlink" x="0px" y="0px"
	 width="35px" height="35px" viewBox="0 0 35 35" enable-background="new 0 0 35 35" xml:space="preserve">
<g>
	<g>
		<path fill="#010202" d="M28.636,20.657c-0.717-0.746-1.581-1.146-2.497-1.146c-0.908,0-1.78,0.392-2.526,1.138l-2.334,2.327
			c-0.192-0.104-0.384-0.2-0.569-0.296c-0.266-0.133-0.517-0.258-0.73-0.391c-2.187-1.39-4.174-3.199-6.08-5.541
			c-0.923-1.167-1.544-2.149-1.994-3.147c0.605-0.554,1.167-1.13,1.713-1.684c0.207-0.207,0.414-0.421,0.621-0.628
			c1.551-1.551,1.551-3.561,0-5.112l-2.017-2.017c-0.229-0.229-0.465-0.465-0.687-0.702c-0.443-0.458-0.909-0.931-1.389-1.374
			C9.43,1.377,8.573,1,7.671,1S5.898,1.377,5.16,2.086C5.152,2.093,5.152,2.093,5.145,2.101L2.633,4.634
			C1.688,5.58,1.148,6.732,1.03,8.069c-0.177,2.157,0.458,4.167,0.946,5.481c1.197,3.228,2.984,6.22,5.651,9.426
			c3.235,3.863,7.128,6.914,11.576,9.063c1.698,0.805,3.967,1.758,6.5,1.921c0.154,0.007,0.317,0.015,0.465,0.015
			c1.707,0,3.14-0.613,4.263-1.832c0.007-0.015,0.022-0.021,0.03-0.037c0.383-0.465,0.826-0.887,1.292-1.337
			c0.317-0.303,0.643-0.62,0.96-0.952c0.731-0.762,1.115-1.648,1.115-2.557c0-0.916-0.391-1.795-1.137-2.533L28.636,20.657z
			 M31.28,28.436C31.273,28.436,31.273,28.442,31.28,28.436c-0.288,0.31-0.583,0.591-0.901,0.901
			c-0.48,0.457-0.968,0.938-1.426,1.477c-0.746,0.799-1.625,1.175-2.777,1.175c-0.111,0-0.229,0-0.34-0.007
			c-2.193-0.141-4.232-0.998-5.762-1.729c-4.181-2.024-7.853-4.898-10.903-8.539c-2.519-3.037-4.203-5.844-5.318-8.858
			c-0.688-1.839-0.938-3.272-0.828-4.624c0.074-0.864,0.406-1.581,1.02-2.194l2.519-2.519c0.362-0.34,0.746-0.524,1.123-0.524
			c0.465,0,0.842,0.281,1.079,0.517c0.007,0.007,0.015,0.015,0.022,0.022c0.451,0.421,0.879,0.857,1.33,1.322
			c0.229,0.236,0.466,0.473,0.702,0.717l2.017,2.017c0.783,0.783,0.783,1.507,0,2.29c-0.214,0.214-0.421,0.428-0.635,0.635
			c-0.621,0.635-1.211,1.226-1.854,1.802c-0.015,0.015-0.03,0.022-0.037,0.037c-0.635,0.635-0.517,1.256-0.384,1.677
			c0.007,0.022,0.015,0.044,0.022,0.066c0.524,1.271,1.263,2.467,2.386,3.893l0.007,0.007c2.039,2.512,4.188,4.47,6.56,5.969
			c0.304,0.192,0.613,0.348,0.909,0.495c0.266,0.134,0.517,0.259,0.73,0.392c0.029,0.015,0.06,0.037,0.089,0.052
			c0.251,0.126,0.487,0.185,0.731,0.185c0.613,0,0.997-0.384,1.123-0.51l2.526-2.526c0.251-0.251,0.649-0.554,1.115-0.554
			c0.458,0,0.835,0.288,1.063,0.539c0.008,0.008,0.008,0.008,0.016,0.015l4.07,4.07C32.033,26.876,32.033,27.652,31.28,28.436z"/>
	</g>
</g>
</svg>
