<?xml version="1.0" encoding="utf-8"?>
<!-- Generator: Adobe Illustrator 16.0.0, SVG Export Plug-In . SVG Version: 6.00 Build 0)  -->
<!DOCTYPE svg PUBLIC "-//W3C//DTD SVG 1.1//EN" "http://www.w3.org/Graphics/SVG/1.1/DTD/svg11.dtd">
<svg version="1.1" id="Capa_1" xmlns="http://www.w3.org/2000/svg" xmlns:xlink="http://www.w3.org/1999/xlink" x="0px" y="0px"
	 width="459.5px" height="343.5px" viewBox="0 0 459.5 343.5" enable-background="new 0 0 459.5 343.5" xml:space="preserve">
<g>
	<path fill="#010202" d="M229.752,48.75c-67.938,0-123,55.072-123,123c0,67.938,55.062,123,123,123c67.924,0,123-55.062,123-123
		C352.745,103.822,297.676,48.75,229.752,48.75z M229.752,271.688c-55.199,0-99.938-44.738-99.938-99.938
		c0-55.196,44.738-99.93,99.938-99.93c55.186,0,99.938,44.734,99.938,99.93C329.689,226.949,284.938,271.688,229.752,271.688z
		 M245.127,187.125h30.901c4.262,0,7.702-3.432,7.702-7.688v-15.375c0-4.235-3.46-7.688-7.702-7.688H245.12 M248.37,156.375h-64.736
		c-4.262,0-7.701,3.445-7.701,7.688v15.375c0,4.256,3.439,7.688,7.701,7.688h64.743"/>
</g>
</svg>
